<svg xmlns="http://www.w3.org/2000/svg" height="142" width="272" viewBox="0 0 272 142"><title>Logo</title><path d="M58.711 54.854c-.847 0-1.727-.378-2.549-1.092l-13.293-11.56c-.434-.378-.473-.974-.095-1.45l1.141-1.437c.172-.216.45-.34.761-.34.256 0 .505.088.684.244l12.483 10.854 1.3-18.579c.042-.596.555-.952 1.027-.952l1.914.13c.273.019.523.145.703.356.179.208.267.472.249.742l-1.397 19.818c-.134 1.923-1.339 3.266-2.928 3.266zm10.234 0c-1.589 0-2.793-1.343-2.928-3.266L64.62 31.77c-.019-.27.069-.534.249-.742.18-.211.43-.337.702-.356l1.851-.129c.539 0 1.049.357 1.091.952l1.3 18.578 12.483-10.854a1.05 1.05 0 0 1 .684-.244c.311 0 .588.124.76.34l1.142 1.437c.378.477.339 1.073-.095 1.45l-13.293 11.56c-.821.714-1.703 1.092-2.549 1.092zM31.159 63.56c-.539 0-.99-.419-1.028-.953l-.129-1.844c-.033-.492.32-1.05.952-1.095l18.589-1.299-10.861-12.477a1.067 1.067 0 0 1-.239-.786.934.934 0 0 1 .336-.658l1.438-1.14c.215-.171.455-.261.695-.261.288 0 .557.126.756.356l11.566 13.286c1.021 1.171 1.346 2.472.892 3.567-.452 1.091-1.598 1.803-3.067 1.907L31.23 63.558l-.071.002zm65.267-.002l-19.829-1.395c-1.47-.104-2.616-.816-3.067-1.907-.454-1.095-.129-2.396.892-3.567l11.565-13.286c.2-.23.47-.356.757-.356.24 0 .48.09.694.261l1.439 1.14a.938.938 0 0 1 .336.658c.027.289-.063.583-.239.786L78.113 58.369l18.588 1.299c.632.045.986.603.952 1.095l-.128 1.844a1.031 1.031 0 0 1-1.028.953l-.071-.002zm141.77 14.709a1.03 1.03 0 0 1-1.03-1.031v-4.81c0-.569.46-1.031 1.03-1.031h1.88c.57 0 1.03.462 1.03 1.031v4.81a1.03 1.03 0 0 1-1.03 1.031h-1.88zm-197.29 7.386c-.24 0-.48-.091-.695-.261l-1.438-1.141a.932.932 0 0 1-.336-.657 1.067 1.067 0 0 1 .239-.786l10.861-12.477-18.589-1.299c-.632-.045-.985-.604-.952-1.096l.129-1.844a1.031 1.031 0 0 1 1.028-.952l19.9 1.397c1.469.103 2.615.816 3.067 1.907.454 1.095.129 2.395-.892 3.567L41.662 85.297a.992.992 0 0 1-.756.356zm45.832 0a.996.996 0 0 1-.757-.356L74.416 72.011c-1.021-1.172-1.346-2.472-.892-3.567.451-1.091 1.597-1.804 3.067-1.907l19.834-1.396c.608 0 1.057.419 1.094.951l.128 1.844c.034.492-.32 1.051-.952 1.096l-18.588 1.299 10.861 12.477c.176.203.266.497.239.786a.934.934 0 0 1-.336.657l-1.439 1.141c-.214.17-.455.261-.694.261zM60.165 98.158c-.472 0-.986-.356-1.028-.953l-1.3-18.578-12.483 10.855a1.054 1.054 0 0 1-.684.243c-.311 0-.589-.124-.761-.34l-1.141-1.438c-.378-.476-.339-1.072.095-1.45l13.293-11.559c.822-.714 1.702-1.092 2.55-1.092 1.588 0 2.793 1.343 2.927 3.266l1.397 19.817c.018.271-.07.535-.249.743-.181.211-.43.337-.703.356l-1.845.128-.068.002zm7.245-.002l-1.845-.128a1.01 1.01 0 0 1-.702-.356 1.02 1.02 0 0 1-.249-.743l1.397-19.817c.135-1.923 1.338-3.266 2.928-3.266.846 0 1.728.378 2.549 1.092l13.293 11.559c.434.378.473.974.095 1.45l-1.142 1.438c-.172.216-.449.34-.76.34-.256 0-.505-.088-.684-.243L69.807 78.627l-1.3 18.578c-.043.597-.556.953-1.028.953l-.069-.002zm71.784 12.394c-.57 0-1.03-.47-1.03-1.03V65.533c0-.568.46-1.031 1.03-1.031h1.88c.56 0 1.03.463 1.03 1.031v43.987c0 .56-.47 1.03-1.03 1.03h-1.88zm76.95 0c-.57 0-1.03-.47-1.03-1.03V65.533c0-.568.46-1.031 1.03-1.031h1.88c.56 0 1.03.463 1.03 1.031v43.987c0 .56-.47 1.03-1.03 1.03h-1.88zm11.03 0c-.57 0-1.04-.47-1.04-1.03V65.533c0-.568.47-1.031 1.04-1.031h1.87c.57 0 1.03.463 1.03 1.031v43.987c0 .56-.46 1.03-1.03 1.03h-1.87zm11.02 0c-.57 0-1.03-.47-1.03-1.03V84.71c0-.569.46-1.032 1.03-1.032h1.88c.57 0 1.03.463 1.03 1.032v24.81c0 .56-.46 1.03-1.03 1.03h-1.88zm-121.31-23.719c-5.75 0-10.25 4.53-10.25 10.314 0 5.655 4.59 10.245 10.25 10.245 6.41 0 10.25-5.21 10.25-10.245 0-5.784-4.5-10.314-10.25-10.314zm0 24.499c-7.83 0-14.2-6.36-14.2-14.185 0-7.859 6.37-14.253 14.2-14.253 5.21 0 8.72 2.814 10.35 4.492l.17.182.91-3.079c.16-.564.73-.972 1.34-.972.27 0 .67.084 1.03.486.25.29.39.68.39 1.098v24.421c0 .56-.46 1.03-1.03 1.03h-1.88c-.57 0-1.03-.47-1.03-1.03v-2.59l-.25.26c-2.5 2.55-6.33 4.14-10 4.14zm46.5-24.499c-5.04 0-10.26 3.858-10.26 10.314 0 5.745 4.51 10.245 10.26 10.245 5.59 0 10.32-4.69 10.32-10.245 0-5.591-4.73-10.314-10.32-10.314zm0 24.499c-4.61 0-8.34-2.29-10.29-4.44l-.17-.19-.97 2.97c-.2.59-.78 1.05-1.34 1.05-.8 0-1.43-.63-1.43-1.43V65.532c0-.568.47-1.03 1.04-1.03h1.87c.57 0 1.03.463 1.03 1.031v21.759l.26-.261c2.49-2.552 6.32-4.139 10-4.139 7.82 0 14.19 6.394 14.19 14.253 0 7.825-6.37 14.185-14.19 14.185zm32.23-24.495c-4.28 0-8.16 2.696-9.65 6.709l-.07.199h19.44l-.08-.199c-1.48-4.013-5.36-6.709-9.64-6.709zm0 24.495c-3.86 0-7.48-1.52-10.18-4.29-2.7-2.76-4.13-6.41-4.04-10.272.17-7.559 6.48-13.783 14.04-13.875l.18-.001c7.53 0 13.77 5.878 14.2 13.381.01.063.01.164.01.287.01.298-.11.579-.32.791-.2.213-.49.33-.78.33h-23.38l.02.158c.37 5.351 4.87 9.551 10.25 9.551 3.63 0 6.93-1.86 8.81-4.98.17-.28.47-.45.8-.45.22 0 .42.07.59.21l1.56 1.26c.4.34.5.92.21 1.36-2.63 4.1-7.11 6.54-11.97 6.54z" fill="#FF6A13" fill-rule="evenodd"/></svg>